# xmcd CD database file
#
# Track frame offsets:
#	150
#	10600
#	23490
#	32870
#	52395
#	65992
#	83527
#	102957
#	116870
#	128345
#	148315
#	164202
#	178845
#	194632
#	210637
#
# Disc length: 3095 seconds
#
# Revision: 7
# Processed by: cddbd v1.5.2PL0 Copyright (c) Steve Scherf et al.
# Submitted via: CDex 1.51
#
DISCID=e10c150f
DTITLE=Willie Nelson - The Very Best Of Willie Nelson (1 of 2)
DYEAR=1998
DGENRE=Country
TTITLE0=Blue Eyes Crying In The Rain
TTITLE1=Remember Me (When The Candle Lights Are Gleaming)
TTITLE2=If You've Got The Money, I've Got The Time
TTITLE3=Georgia On My Mind
TTITLE4=Heartbreak Hotel
TTITLE5=All Of Me
TTITLE6=Last Thing I Needed First Thing This Morning
TTITLE7=My Heroes Have Always Been Cowboys
TTITLE8=On The Road Again
TTITLE9=Angel Flying Too Close To The Ground [Live]
TTITLE10=Always On My Mind
TTITLE11=Everything Is Beautiful (In Its Own Way)
TTITLE12=Let It Be Me
TTITLE13=Blue Skies
TTITLE14=Pancho And Lefty
EXTD=The Very Best of Willie Nelson [CD1] YEAR: 1998
EXTT0=
EXTT1=
EXTT2=
EXTT3=
EXTT4=
EXTT5=
EXTT6=
EXTT7=
EXTT8=
EXTT9=
EXTT10=
EXTT11=
EXTT12=
EXTT13=
EXTT14=
PLAYORDER=
